<svg xmlns="http://www.w3.org/2000/svg" xmlns:xlink="http://www.w3.org/1999/xlink" xmlns:serif="http://www.serif.com/" width="100%" height="100%" viewBox="0 0 1350 2371" version="1.1" xml:space="preserve" style="fill-rule:evenodd;clip-rule:evenodd;stroke-miterlimit:10;"><g id="Lag-1" serif:id="Lag 1"><g id="group-MC1"><g><path id="path30" d="M731.771,917.075l-56.859,-56.858l-56.858,56.858l-56.871,-56.875l-0.016,104.004l227.441,0l0,-103.967l-56.837,56.838Z" style="fill:#9c27b0;fill-rule:nonzero;stroke:#000185;stroke-opacity:0;stroke-width:1.47px;"/><rect id="path32" x="581.455" y="972.535" width="186.862" height="34.637" style="fill:#9c27b0;fill-rule:nonzero;stroke:#000185;stroke-opacity:0;stroke-width:1.47px;"/><path id="path34" d="M788.245,1008.27c11.087,3.87 24.737,23.648 24.737,36.052c-0,15.683 -16.689,36.609 -32.372,36.609l0.42,38.195l180.582,-235.941l-173.367,125.085Z" style="fill:#9c27b0;fill-rule:nonzero;stroke:#000185;stroke-opacity:0;stroke-width:1.47px;stroke-miterlimit:4;"/><path id="path36" d="M538.855,1491.55c-0,-15.683 5.149,-33.311 20.832,-33.311c-15.683,-0 -20.174,-16.996 -20.174,-32.68c-0,-15.683 11.726,-36.284 27.409,-36.284l6.533,-0.329l0.329,-6.347l-23.703,-0.321l22.716,-25.723l0.329,-142.653l-392.221,317.242l388.218,-0.167c-0,-0.856 0.21,-1.821 0.21,-3.239l-2.082,-0.211c-15.684,0 -28.396,-20.293 -28.396,-35.977Z" style="fill:#9c27b0;fill-rule:nonzero;stroke:#000185;stroke-opacity:0;stroke-width:1.47px;stroke-miterlimit:4;"/><path id="path38" d="M780.161,1381.99l-0,7.059l6.857,0.329c15.688,-0 25.769,17.645 25.769,33.329c0,15.679 -4.18,35.787 -19.868,35.787c15.688,0 19.1,19.146 19.1,34.825c-0,15.683 -6.746,29.894 -22.433,29.894l-5.591,0l0.078,3.838l20.391,-0.338l-23.646,29.017l0,165.533l423.776,-337.421l-424.433,-1.852Z" style="fill:#9c27b0;fill-rule:nonzero;stroke:#000185;stroke-opacity:0;stroke-width:1.47px;stroke-miterlimit:4;"/><path id="path40" d="M538.109,1872.55c-2.214,-15.683 15.163,-32.511 30.846,-32.511l-0,-42.431l-203.392,249.659l189.71,-145.071c-9.667,-4.529 -17.164,-18.271 -17.164,-29.646Z" style="fill:#9c27b0;fill-rule:nonzero;stroke:#000185;stroke-opacity:0;stroke-width:1.47px;stroke-miterlimit:4;"/><path id="path42" d="M662.296,2192.75c7.209,33.009 12.413,56.592 12.413,56.592c-0,0 5.2,-23.583 12.429,-56.592l-24.842,0Z" style="fill:#9c27b0;fill-rule:nonzero;stroke:#000185;stroke-opacity:0;stroke-width:1.47px;"/><path id="path44" d="M712.003,1952.83c5.763,-23.125 48.25,-43.55 48.25,-43.55l-171.129,-0c0,-0 42.583,20.425 48.342,43.55c3.346,13.429 -17.959,30.225 -15.246,43.962c6.921,35.017 24.108,114.467 36.942,173.288l31.104,-0c12.858,-58.821 30.066,-138.271 36.987,-173.288c2.717,-13.737 -18.587,-30.533 -15.25,-43.962" style="fill:#9c27b0;fill-rule:nonzero;stroke:#000185;stroke-opacity:0;stroke-width:1.47px;"/><path id="path46" d="M659.163,2174.25l31.104,-0l-3.129,14.333l-24.841,0l-3.134,-14.333Z" style="fill:#9c27b0;fill-rule:nonzero;"/><clipPath id="_clip1" fill="#000000"><path d="M659.163,2174.25l31.104,-0l-3.129,14.333l-24.841,0l-3.134,-14.333Z" clip-rule="nonzero" fill="#000000"/></clipPath><g clip-path="url(#_clip1)"><rect x="-569.295" y="-328.978" width="2466.67" height="3500" style="fill:#9c27b0;"/></g><path d="M659.163,2174.25l31.104,-0l-3.129,14.333l-24.841,0l-3.134,-14.333Z" style="fill:none;fill-rule:nonzero;stroke:#000185;stroke-opacity:0;stroke-width:1.47px;stroke-miterlimit:4;"/><rect id="path48" x="581.455" y="1080.63" width="186.862" height="308.3" style="fill:#9c27b0;fill-rule:nonzero;stroke:#000185;stroke-opacity:0;stroke-width:1.47px;"/><path id="path50" d="M774.19,1015.51l-198.604,-0c-15.688,-0 -28.396,12.712 -28.396,28.395c-0,15.684 12.708,28.396 28.396,28.396l198.604,0c15.687,0 28.396,-12.712 28.396,-28.396c-0,-15.683 -12.709,-28.395 -28.396,-28.395" style="fill:#9c27b0;fill-rule:nonzero;stroke:#000185;stroke-opacity:0;stroke-width:1.47px;stroke-miterlimit:4;"/><rect id="path52" x="581.45" y="1527.53" width="186.867" height="308.292" style="fill:#9c27b0;fill-rule:nonzero;stroke:#000185;stroke-opacity:0;stroke-width:1.47px;"/><path id="path54" d="M774.19,1844.15l-198.604,0c-15.688,0 -28.396,12.721 -28.396,28.4c-0,15.684 12.708,28.4 28.396,28.4l198.604,0c15.687,0 28.396,-12.716 28.396,-28.4c-0,-15.679 -12.709,-28.4 -28.396,-28.4" style="fill:#9c27b0;fill-rule:nonzero;stroke:#000185;stroke-opacity:0;stroke-width:1.47px;stroke-miterlimit:4;"/><path id="path56" d="M774.19,1397.27l-198.604,0c-15.688,0 -28.396,12.713 -28.396,28.392c-0,15.683 12.708,28.404 28.396,28.404l198.604,-0c15.687,-0 28.396,-12.721 28.396,-28.404c-0,-15.679 -12.709,-28.392 -28.396,-28.392" style="fill:#9c27b0;fill-rule:nonzero;stroke:#000185;stroke-opacity:0;stroke-width:1.47px;stroke-miterlimit:4;"/><path id="path58" d="M774.19,1462.4l-198.604,-0c-15.688,-0 -28.396,12.712 -28.396,28.391c-0,15.684 12.708,28.405 28.396,28.405l198.604,-0c15.687,-0 28.396,-12.721 28.396,-28.405c-0,-15.679 -12.709,-28.391 -28.396,-28.391" style="fill:#9c27b0;fill-rule:nonzero;stroke:#000185;stroke-opacity:0;stroke-width:1.47px;stroke-miterlimit:4;"/></g></g></g></svg>