<?xml version="1.0" encoding="UTF-8" standalone="no"?><!DOCTYPE svg PUBLIC "-//W3C//DTD SVG 1.1//EN" "http://www.w3.org/Graphics/SVG/1.1/DTD/svg11.dtd"><svg width="100%" height="100%" viewBox="0 0 2171 2275" version="1.1" xmlns="http://www.w3.org/2000/svg" xmlns:xlink="http://www.w3.org/1999/xlink" xml:space="preserve" xmlns:serif="http://www.serif.com/" style="fill-rule:evenodd;clip-rule:evenodd;stroke-linejoin:round;stroke-miterlimit:2;"><path d="M981.862,15.374c57.474,-0.285 113.761,-3.793 168.962,2.391c49.836,5.583 98.48,21.791 147.663,33.256c12.255,2.857 24.561,5.495 39.034,8.721l0,-43.682c26.084,7.855 50.157,11.981 71.369,22.102c54.329,25.923 108.112,52.777 156.22,90.245c60.274,46.945 110.549,102.494 149.082,167.824c32.252,54.682 76.599,92.364 134.811,116.612c88.05,36.677 161.957,92.993 215.974,171.893c31.996,46.735 49.807,100.104 51.699,157.704c1.381,42.046 3.86,84.091 3.926,126.139c0.119,76.393 -16.183,149.249 -51.3,217.996c-11.953,1.562 -19.581,2.828 -24.503,-14.744c-16.128,-57.575 -33.329,-114.777 -68.307,-165.315c-40.65,-58.734 -95.012,-99.865 -159.334,-126.295c-55.188,-22.676 -112.795,-40.221 -170.476,-55.805c-39.019,-10.542 -79.886,-14.786 -120.167,-19.976c-51.392,-6.62 -103.019,-11.432 -154.567,-16.806c-6.68,-0.696 -13.495,-0.095 -21.082,-0.095l-0,33.291c13.846,-0 28.127,-0.149 42.405,0.023c119.025,1.436 236.174,17.113 347.645,59.351c54.432,20.626 105.6,50.588 156.447,79.489c14.016,7.966 32.36,19.681 31.913,47.436c-34.993,-4.186 -68.519,-8.14 -102.031,-12.223c-31.068,-3.785 -62.083,-10.563 -93.185,-10.955c-58.683,-0.739 -117.82,-1.683 -176.022,4.488c-80.145,8.497 -159.769,22.515 -239.28,36.132c-45.08,7.72 -89.488,19.366 -134.569,29.325l0,26.572c172.189,-35.56 342.482,-76.837 520.821,-66.821c-7.608,35.987 -27.892,64.087 -49.364,90.488c-35.39,43.513 -73.66,84.671 -109.78,127.609c-16.9,20.089 -9.988,43.913 -1.44,64.118c36.577,86.454 56.471,177.14 72.352,269.027c9.567,55.358 20.606,110.502 28.465,166.098c5.264,37.233 7.494,75.049 8.639,112.679c2.357,77.445 6.825,155.11 3.326,232.363c-2.992,66.066 3.002,133.296 -15.571,198.233c-7.212,25.215 -14.527,50.432 -23.004,75.235c-2.225,6.511 -8.921,16.041 -13.646,16.089c-7.158,0.072 -16.965,-5.169 -21.151,-11.249c-20.275,-29.443 -38.158,-60.537 -58.543,-89.897c-39.736,-57.229 -77.452,-116.272 -121.72,-169.84c-59.842,-72.412 -120.897,-144.817 -189.204,-208.946c-63.033,-59.178 -133.969,-110.916 -205.814,-159.429c-61.837,-41.755 -128.461,-77.182 -195.492,-110.3c-94.296,-46.588 -192.732,-83.57 -295.514,-107.518c-73.542,-17.135 -147.024,-34.771 -221.105,-49.255c-44.639,-8.728 -90.341,-12.125 -135.628,-17.386c-28.483,-3.308 -57.048,-6.071 -85.642,-8.209c-13.675,-1.022 -13.658,-9.988 -12.538,-19.094c6.809,-55.316 9.163,-111.752 22.12,-165.623c29.241,-121.575 83.043,-233.731 150.365,-338.448c29.266,-45.521 68.82,-84.429 103.72,-126.324c8.178,-9.817 16.435,-19.567 27.087,-32.241c-29.998,-2.178 -56.202,-4.692 -82.466,-5.815c-25.371,-1.085 -34.023,-11.79 -20.68,-32.854c33.923,-53.553 67.148,-107.997 106.218,-157.71c36.482,-46.421 78.834,-88.517 120.901,-130.195c72.699,-72.026 158.809,-120.989 259.766,-141.848c29.736,-6.144 59.776,-10.832 89.472,-17.149c5.497,-1.169 10.013,-6.948 14.982,-10.6c-4.191,-3.984 -7.74,-10.151 -12.676,-11.604c-35.48,-10.439 -71.241,-19.922 -111.56,-30.983c71.213,-68.449 158.711,-87.681 251.977,-97.695m28.169,288.757c-22.88,4.39 -45.76,8.78 -75.009,14.393c7.327,13.023 10.228,25.592 17.829,29.935c11.165,6.379 25.771,6.56 38.766,9.941c43.254,11.251 86.443,22.752 131.017,34.516c-8.738,20.567 -15.883,38.6 -24.041,56.162c-5.514,11.872 -3.061,20.996 6.533,29.006c25.585,21.358 50.771,43.226 77.045,63.698c5.651,4.403 16.196,6.994 22.829,4.975c61.552,-18.737 122.618,-39.068 184.109,-58.016c19.721,-6.077 25.505,-14.824 11.279,-31.665c-22.514,-26.651 -45.754,-52.738 -69.646,-78.162c-38.2,-40.65 -87.601,-60.44 -141.004,-70.13c-30.058,-5.454 -60.885,-8.066 -91.451,-8.919c-28.102,-0.785 -56.318,2.501 -88.256,4.266m752.525,185.169c12.892,-10.1 10.482,-17.9 -4.088,-22.548c-37.316,-11.906 -70.602,-4.148 -96.045,42.037c-18.534,33.645 -7.214,56.523 24.585,68.813c24.826,-29.16 49.058,-57.621 75.548,-88.302Z" style="fill:#fbca03;fill-rule:nonzero;"/></svg>